<svg width="100" height="32" viewBox="0 0 100 32" fill="none" xmlns="http://www.w3.org/2000/svg">
<g clip-path="url(#clip0)">
<path fill-rule="evenodd" clip-rule="evenodd" d="M5.74258 6.08874C12.0354 -0.62355 20.4717 -1.98185 25.8616 2.9935C31.2516 7.96885 31.538 21.7006 25.8616 27.7554C20.1853 33.8102 7.10229 31.8677 2.64734 27.7554C-1.80761 23.6432 -0.550197 12.801 5.74258 6.08874Z" fill="#F8D57E"/>
<path d="M15.0283 12.2792V20.0173" stroke="white" stroke-width="2.32143" stroke-linecap="round"/>
<path d="M11.1592 16.1483H18.8973" stroke="white" stroke-width="2.32143" stroke-linecap="round"/>
<path d="M44.4399 9.65845H46.2908L47.2566 6.35893H48.6448L48.0613 9.65845H50.9585L50.6969 11.2277H47.7796L46.9346 16.1167C46.881 16.3849 46.8542 16.6398 46.8542 16.8812C46.8542 17.3506 46.9883 17.7195 47.2566 17.9877C47.5382 18.2426 47.9138 18.37 48.3832 18.37C48.7722 18.37 49.0941 18.3163 49.3489 18.209C49.6172 18.0883 49.8653 17.9676 50.0933 17.8469L50.3146 19.4162C50.0598 19.5637 49.7379 19.6912 49.3489 19.7985C48.9734 19.9192 48.5509 19.9795 48.0814 19.9795C47.7059 19.9795 47.337 19.9192 46.9749 19.7985C46.6127 19.6912 46.2908 19.5235 46.0092 19.2955C45.7275 19.054 45.4995 18.7456 45.3251 18.37C45.1508 17.9944 45.0636 17.5451 45.0636 17.022C45.0636 16.8745 45.0703 16.7269 45.0837 16.5794C45.0971 16.4185 45.1172 16.2374 45.1441 16.0362L45.9689 11.2277H44.1783L44.4399 9.65845ZM51.7403 15.6137C51.7403 14.648 51.9012 13.7627 52.2231 12.958C52.5584 12.1398 53.0212 11.4423 53.6113 10.8656C54.2015 10.2888 54.9057 9.83952 55.7238 9.51762C56.542 9.19571 57.434 9.03476 58.3997 9.03476C59.191 9.03476 59.8818 9.11524 60.4719 9.27619C61.0755 9.43714 61.5718 9.59809 61.9607 9.75905L60.6932 16.9013C60.6798 16.9684 60.6664 17.0488 60.653 17.1427C60.653 17.2232 60.653 17.3104 60.653 17.4043C60.653 17.7798 60.7603 18.0481 60.9749 18.209C61.1895 18.3566 61.4712 18.4304 61.8199 18.4304L61.1962 19.8387C60.4719 19.8387 59.9153 19.6643 59.5263 19.3156C59.1508 18.9669 58.963 18.4102 58.963 17.6457C58.5875 18.2895 58.1113 18.8394 57.5346 19.2955C56.9712 19.7515 56.3073 19.9795 55.5428 19.9795C55.0465 19.9795 54.5703 19.8789 54.1143 19.6777C53.6583 19.4765 53.2492 19.1882 52.8871 18.8126C52.5383 18.4371 52.2567 17.981 52.0421 17.4445C51.8409 16.8946 51.7403 16.2843 51.7403 15.6137ZM59.969 10.8254C59.7141 10.7449 59.4459 10.6845 59.1642 10.6443C58.8959 10.5906 58.5673 10.5638 58.1784 10.5638C57.4809 10.5638 56.8505 10.6845 56.2872 10.926C55.7238 11.1674 55.241 11.5027 54.8386 11.9319C54.4362 12.3611 54.1277 12.8708 53.9131 13.461C53.6985 14.0511 53.5912 14.6949 53.5912 15.3924C53.5912 15.8752 53.6583 16.3044 53.7924 16.68C53.94 17.0421 54.1277 17.3506 54.3557 17.6055C54.5838 17.8603 54.8386 18.0548 55.1203 18.1889C55.4153 18.3096 55.7171 18.37 56.0256 18.37C56.428 18.37 56.8103 18.2627 57.1724 18.0481C57.548 17.8335 57.8833 17.5317 58.1784 17.1427C58.4734 16.7404 58.7283 16.2709 58.9429 15.7344C59.1575 15.1845 59.3184 14.5876 59.4257 13.9438L59.969 10.8254ZM70.97 11.5496C70.581 11.2814 70.1451 11.0467 69.6623 10.8455C69.1928 10.6443 68.6563 10.5437 68.0527 10.5437C67.4089 10.5437 66.9127 10.651 66.5639 10.8656C66.2286 11.0802 66.0609 11.3619 66.0609 11.7106C66.0609 11.8715 66.0878 12.0191 66.1414 12.1532C66.2085 12.2873 66.3158 12.4282 66.4633 12.5757C66.6243 12.7098 66.8389 12.8574 67.1071 13.0183C67.3754 13.1793 67.7174 13.3671 68.1332 13.5817C69.0587 14.0511 69.736 14.5273 70.1652 15.0101C70.6079 15.4796 70.8292 16.0764 70.8292 16.8007C70.8292 17.3372 70.7219 17.8067 70.5073 18.209C70.2927 18.598 69.9909 18.9266 69.6019 19.1949C69.2263 19.4497 68.7837 19.6442 68.274 19.7783C67.7644 19.9125 67.2144 19.9795 66.6243 19.9795C65.8061 19.9795 65.0818 19.8789 64.4514 19.6777C63.8344 19.4631 63.2979 19.1882 62.8419 18.8529L63.868 17.364C64.2301 17.6591 64.6526 17.9073 65.1355 18.1085C65.6317 18.3096 66.1817 18.4102 66.7852 18.4102C67.4693 18.4102 67.9991 18.2828 68.3746 18.028C68.7636 17.7731 68.9581 17.4579 68.9581 17.0824C68.9581 16.908 68.9246 16.7471 68.8575 16.5995C68.8038 16.4386 68.6965 16.2776 68.5356 16.1167C68.3746 15.9557 68.1533 15.7948 67.8717 15.6338C67.6034 15.4594 67.2614 15.265 66.8456 15.0504C66.3359 14.7955 65.9134 14.5541 65.5781 14.3261C65.2562 14.0846 64.9946 13.8365 64.7934 13.5817C64.6057 13.3268 64.4715 13.0586 64.3911 12.7769C64.3106 12.4818 64.2703 12.1599 64.2703 11.8112C64.2703 11.4088 64.3642 11.04 64.552 10.7046C64.7398 10.3559 65.0013 10.0608 65.3367 9.8194C65.672 9.57797 66.0744 9.3902 66.5438 9.25607C67.0132 9.10853 67.5296 9.03476 68.093 9.03476C68.8441 9.03476 69.5147 9.13536 70.1049 9.33655C70.7084 9.52432 71.2382 9.75234 71.6943 10.0206L70.97 11.5496ZM75.2018 4.85H77.0125L75.926 11.0265C76.2882 10.4096 76.7643 9.92671 77.3545 9.57798C77.9446 9.21583 78.6086 9.03476 79.3463 9.03476C79.7755 9.03476 80.1712 9.10853 80.5333 9.25607C80.9089 9.3902 81.2241 9.57797 81.4789 9.8194C81.7472 10.0608 81.955 10.3492 82.1026 10.6845C82.2501 11.0064 82.3239 11.3552 82.3239 11.7307C82.3239 12.2672 82.23 12.73 82.0422 13.1189C81.8545 13.5079 81.5862 13.8298 81.2375 14.0846C80.9022 14.3395 80.4998 14.5273 80.0303 14.648C79.5743 14.7687 79.0713 14.829 78.5214 14.829H78.3202C78.2531 14.829 78.1727 14.8223 78.0788 14.8089L79.7889 17.4244C80.0169 17.7731 80.2718 18.028 80.5534 18.1889C80.8485 18.3499 81.2442 18.4304 81.7404 18.4304L81.1168 19.8387C80.4864 19.8387 79.9566 19.7515 79.5273 19.5771C79.1116 19.3894 78.736 19.0071 78.4007 18.4304L75.926 14.1651L76.1071 13.5817C76.3083 13.6756 76.5631 13.756 76.8716 13.8231C77.1801 13.8767 77.5289 13.9036 77.9178 13.9036C78.8031 13.9036 79.467 13.7225 79.9096 13.3604C80.3522 12.9982 80.5735 12.5221 80.5735 11.9319C80.5735 11.5161 80.4193 11.1674 80.1108 10.8857C79.8157 10.5906 79.4133 10.4431 78.9037 10.4431C78.622 10.4431 78.3001 10.5102 77.9379 10.6443C77.5892 10.765 77.2405 10.9796 76.8918 11.2881C76.543 11.5966 76.2211 12.0124 75.926 12.5355C75.6444 13.0586 75.4365 13.7225 75.3023 14.5273L74.397 19.7381H72.5863L75.2018 4.85ZM85.7033 16.1167C85.6764 16.3044 85.6563 16.4654 85.6429 16.5995C85.6295 16.7337 85.6228 16.8544 85.6228 16.9617C85.6228 17.4311 85.7569 17.7933 86.0252 18.0481C86.2934 18.2895 86.6623 18.4102 87.1317 18.4102C87.3597 18.4102 87.5878 18.3834 87.8158 18.3298C88.0438 18.2761 88.2517 18.2023 88.4395 18.1085L88.6205 19.5771C88.3791 19.6979 88.0974 19.7917 87.7755 19.8588C87.4536 19.9393 87.1049 19.9795 86.7293 19.9795C86.327 19.9795 85.9447 19.9192 85.5826 19.7985C85.2338 19.6912 84.9253 19.5235 84.6571 19.2955C84.4022 19.0675 84.1943 18.7791 84.0334 18.4304C83.8858 18.0682 83.8121 17.6524 83.8121 17.183C83.8121 16.9952 83.8188 16.8275 83.8322 16.68C83.8456 16.519 83.8657 16.3447 83.8926 16.1569L85.8642 4.85H87.6749L85.7033 16.1167ZM93.2852 18.1286C93.6607 18.1286 94.0363 18.0414 94.4118 17.867C94.7874 17.6792 95.1361 17.411 95.458 17.0623C95.7933 16.7135 96.0817 16.2843 96.3231 15.7746C96.5646 15.265 96.7456 14.6815 96.8664 14.0243L97.6912 9.27619H99.502L97.6711 19.8588C97.5102 20.7843 97.262 21.5354 96.9267 22.1121C96.5914 22.7023 96.2091 23.165 95.7799 23.5004C95.3507 23.8491 94.8947 24.0838 94.4118 24.2045C93.929 24.3387 93.4528 24.4057 92.9834 24.4057C92.0713 24.4057 91.2934 24.2179 90.6496 23.8424C90.0192 23.4802 89.5028 23.0443 89.1004 22.5346L90.5087 21.4885C91.166 22.3871 92.0311 22.8364 93.1041 22.8364C93.7747 22.8364 94.3649 22.5883 94.8746 22.092C95.3843 21.5958 95.7464 20.7508 95.961 19.557L96.3433 17.4244C95.9409 18.0682 95.4312 18.6181 94.8142 19.0742C94.1972 19.5168 93.4864 19.7381 92.6816 19.7381C92.2792 19.7381 91.9037 19.671 91.5549 19.5369C91.2062 19.4028 90.8977 19.2083 90.6294 18.9535C90.3612 18.6986 90.1466 18.3901 89.9856 18.028C89.8381 17.6658 89.7643 17.2567 89.7643 16.8007C89.7643 16.6532 89.771 16.4855 89.7844 16.2977C89.7979 16.11 89.818 15.9088 89.8448 15.6942L90.9312 9.27619H92.7419L91.6354 15.6539C91.5952 15.8954 91.575 16.1234 91.575 16.338C91.575 16.9415 91.7427 17.3909 92.078 17.686C92.4133 17.981 92.8157 18.1286 93.2852 18.1286Z" fill="black"/>
</g>
<defs>
<clipPath id="clip0">
<rect width="100" height="32" fill="white"/>
</clipPath>
</defs>
</svg>
