<svg width="135" height="154" viewBox="0 0 135 154" fill="none" xmlns="http://www.w3.org/2000/svg">
<path fill-rule="evenodd" clip-rule="evenodd" d="M101.857 99.1997C100.821 95.1869 99.8686 93.4855 98.0286 92.0908C96.3075 90.7862 93.7951 89.6905 90.1292 88.8901C86.311 88.2233 86.2027 86.2412 85.2454 83.0554C84.9661 82.0977 83.5821 81.8428 82.9847 82.5332C82.9005 82.4424 82.8127 82.3592 82.7218 82.2841C82.8032 81.8273 82.1373 80.5182 82.1596 80.0812C82.3918 75.5208 80.8984 73.2308 77.1709 72.3795C76.3603 72.1942 70.8543 72.0852 70.0639 72.3035C66.6086 73.2577 63.2071 76.2873 63.7276 79.9369C62.643 81.3527 61.5815 82.2168 59.9081 82.673C56.1841 83.1453 52.4605 83.5652 48.7356 83.9247C41.4442 85.067 34.6078 88.9219 29.9353 94.544C29.5044 95.063 29.3799 95.7674 29.7602 96.3208C29.4623 97.5955 27.7851 100.687 29.1048 101.561C26.9347 106.745 21.9416 116.766 21.9322 119.628C21.8929 131.654 23.1935 147.308 35.0745 153.963C35.5502 154.43 35.6183 154.947 35.8243 155.642C36.3466 157.831 38.2436 159.396 40.3199 159.268C50.5484 159.495 60.4553 158.249 70.6839 158.188C75.1948 158.162 80.6195 158.834 84.538 159.282C88.4565 159.73 92.4121 159.334 96.1725 158.188C96.4896 158.687 97.1307 158.977 97.7811 158.834C101.679 158.061 104.832 155.661 107.578 153.038C108.417 151.514 111.693 147.17 110.391 145.658C111.572 140.673 111.51 135.316 109.412 130.569C109.71 129.698 109.167 128.742 109.412 127.843C109.589 127.193 110.043 126.924 110.271 126.28C110.592 125.374 110.243 124.158 109.881 123.234C109.733 122.773 110.154 122.277 110.271 121.807C110.826 119.588 109.555 119.784 108.639 118.301C108.653 118.297 108.891 117.238 108.89 117.243C109.03 116.488 108.679 115.519 108.372 114.888C108.165 114.462 107.722 114.195 107.281 114.244C107.725 112.739 108.286 111.486 108.89 110.035C109.958 107.479 111.31 105.03 112.843 102.716C113.471 101.769 112.628 100.671 111.611 100.606C108.322 100.397 105.069 99.9243 101.857 99.1997Z" fill="white"/>
<path fill-rule="evenodd" clip-rule="evenodd" d="M92.2576 118.535C90.9421 118.019 89.5255 117.735 88.1018 117.624C88.8683 117.49 89.6371 117.36 90.4121 117.294C90.9528 117.248 91.4542 117.252 91.8606 117.662C92.1317 117.935 92.2588 118.286 92.4371 118.609C92.3788 118.583 92.3182 118.558 92.2576 118.535ZM106.378 113.717C104.223 113.826 102.066 114.338 100.117 115.265C99.32 115.645 98.5974 116.194 98.3859 117.096C98.2789 117.557 98.3051 118.033 98.362 118.498C98.4049 118.851 98.4156 119.3 98.7222 119.539C98.7745 119.579 98.8303 119.61 98.8886 119.633C98.1696 119.957 97.485 120.347 96.8765 120.748C96.3205 121.115 95.7489 121.68 95.4922 122.317C95.4708 122.245 95.4494 122.177 95.428 122.113C94.9907 120.821 94.3169 119.764 93.2557 119.052C93.4434 118.968 93.573 118.769 93.5123 118.493C93.2604 117.343 92.1967 116.343 90.9954 116.414C89.6798 116.492 88.2668 116.97 87.0771 117.574C86.6435 117.565 86.2108 117.571 85.7831 117.59C85.7094 117.592 85.713 117.692 85.7831 117.7C86.1301 117.744 86.4771 117.793 86.8241 117.85C87.6489 117.982 88.4712 118.149 89.2756 118.357C90.2407 118.606 91.239 118.856 92.141 119.292C93.8901 120.139 94.9729 122.352 94.7506 124.277C94.7138 124.593 94.5914 125.548 94.1528 125.449C93.7821 125.366 93.6347 124.593 93.5052 124.307C93.1582 123.547 92.5331 123.051 91.7833 122.715C90.9027 122.32 89.9603 122.052 89.0475 121.741C88.5307 121.565 88.0137 121.388 87.4956 121.212C86.9656 121.03 86.4617 120.78 85.8972 120.907C85.5561 120.984 85.5169 121.39 85.7083 121.623C85.9994 121.978 86.432 122.082 86.8515 122.228C87.4053 122.42 87.9579 122.613 88.5105 122.805C89.3648 123.102 90.2597 123.352 91.0927 123.716L91.0667 123.775C90.9988 123.756 90.9192 123.824 90.9324 123.907C91.0572 124.675 91.2307 125.563 91.038 126.332C90.886 126.943 90.3499 127.618 89.6537 127.439C89.763 127.339 89.8034 127.167 89.7297 127.008C89.4539 126.419 85.8413 124.094 85.5193 124.958C85.5086 124.988 85.5418 125.011 85.568 125.006C85.8425 124.949 86.3024 125.417 86.5222 125.565C86.8395 125.779 87.1615 125.988 87.4754 126.208C87.8188 126.448 88.1539 126.699 88.4807 126.959C88.7374 127.164 88.9311 127.376 89.2257 127.479C89.0714 127.553 88.9488 127.689 88.8967 127.864C88.7636 128.319 88.5069 128.704 88.0612 128.905C87.5942 129.114 87.0678 128.982 86.5758 129.033C85.9055 129.101 85.3208 129.419 84.8324 129.874C83.8068 130.831 83.2923 132.517 81.8579 132.969C81.0011 133.238 80.0504 133.069 79.1829 132.946C78.2143 132.81 77.2707 132.702 76.2951 132.844C75.361 132.981 74.4781 133.304 73.6248 133.698C72.825 134.067 71.9409 134.485 71.2314 135.036C71.0852 134.586 70.9379 134.141 70.826 133.681C70.5623 132.595 70.4197 131.488 70.3852 130.372C70.3532 129.31 70.4126 128.243 70.504 127.185C70.5493 126.656 70.6206 126.131 70.6657 125.602C70.6775 125.469 70.7014 125.327 70.7192 125.184C71.986 124.438 73.3169 123.865 74.6586 123.277C74.6623 123.275 74.6658 123.273 74.6694 123.272C74.711 123.253 74.7514 123.235 74.793 123.217C74.7918 123.215 74.7906 123.212 74.7882 123.21C74.9415 123.116 75.0485 122.992 75.1127 122.851C77.0461 121.57 78.6623 119.822 79.8674 117.782C80.3724 116.927 80.8585 116.04 81.5192 115.291C82.2227 114.492 83.0582 114.017 84.0921 113.77C85.3006 113.481 86.5461 113.307 87.7844 113.209C88.4605 113.156 89.2162 113.072 89.9531 113.076C90.4665 113.079 90.9691 113.123 91.4303 113.25C92.1136 113.438 92.5129 113.957 92.9419 114.482C93.3519 114.985 93.7595 115.49 94.1422 116.014C94.5045 116.512 94.8469 117.026 95.144 117.565C95.3222 117.888 95.4874 118.22 95.6265 118.563C95.6752 118.684 95.7394 118.822 95.7691 118.948C95.7988 119.075 95.7441 119.209 95.8867 119.209C95.2985 119.217 95.3044 120.156 95.8891 120.122C98.1779 119.989 94.8992 115.525 94.4201 114.903C93.7416 114.022 93.0417 112.873 91.9556 112.463C91.9401 112.457 91.9235 112.452 91.908 112.447C92.2241 112.147 92.4737 111.789 92.7126 111.424C92.9586 111.049 93.252 110.62 93.3329 110.174C93.384 109.891 93.0311 109.729 92.8635 109.977C92.6199 110.339 92.5022 110.798 92.3204 111.195C92.135 111.599 91.9092 111.98 91.731 112.387C91.302 112.256 90.8385 112.195 90.3667 112.175C90.9621 111.37 91.9792 109.817 92.1017 109.618C92.665 108.694 93.201 107.742 93.7132 106.788C94.2668 105.756 94.7411 104.68 95.2711 103.635C95.5718 103.043 95.8748 102.446 96.2088 101.871C96.3241 101.674 96.4476 101.477 96.5879 101.298C96.6152 101.262 96.6497 101.232 96.6818 101.199C96.7186 101.179 96.7566 101.156 96.778 101.145C96.9704 101.034 97.0383 100.778 97.1736 100.615C97.39 100.353 97.6443 100.322 97.97 100.318C98.6639 100.311 99.3604 100.338 100.053 100.357C101.072 100.386 102.089 100.426 103.106 100.48C103.414 100.496 103.721 100.513 104.028 100.532C105.508 100.62 106.986 100.735 108.461 100.876C109.766 101.001 111.071 101.204 112.377 101.301C110.608 105.498 108.648 109.619 106.428 113.596C106.405 113.636 106.388 113.677 106.378 113.717ZM96.5666 124.529C96.2814 124.66 96.0045 124.822 95.7466 125.007C95.7894 124.719 95.8001 124.415 95.7882 124.11C96.0009 124.338 96.2731 124.468 96.5666 124.529ZM108.742 117.31C108.722 117.312 108.703 117.322 108.693 117.343C108.298 118.156 108.464 119.064 109.108 119.702C109.445 120.034 110.181 120.409 110.157 120.955C110.137 121.397 109.656 121.767 109.45 122.132C109.259 122.471 109.187 122.844 109.341 123.212C109.537 123.684 110.085 123.871 110.272 124.334C110.51 124.922 110.124 125.631 109.853 126.142C109.601 126.616 109.275 127.09 109.059 127.591C107.61 128.34 106.314 129.489 105.199 130.656C103.979 131.932 102.932 133.434 100.993 133.396C100.8 133.393 100.652 133.495 100.564 133.636C100.025 133.661 99.4843 133.672 98.9447 133.674C97.9964 133.679 97.0481 133.669 96.1009 133.64C96.0344 133.41 96.0831 133.099 96.0794 132.906C96.0677 132.283 96.0617 131.66 96.0356 131.037C96.0284 130.864 96.0213 130.689 96.0142 130.516C96.3552 131.132 97.0207 131.412 97.7789 131.37C98.9982 131.298 100.225 131.099 101.432 130.92C102.068 130.826 102.702 130.719 103.336 130.605C103.856 130.512 104.591 130.536 104.954 130.119C105.04 130.022 105.045 129.844 104.91 129.779C104.55 129.602 104.323 129.7 103.927 129.776C103.445 129.87 102.961 129.959 102.476 130.042C101.546 130.204 100.613 130.353 99.678 130.485C99.1456 130.56 98.612 130.634 98.0784 130.692C97.6126 130.742 97.0873 130.809 96.7118 130.459C95.9548 129.751 96.379 128.565 96.8579 127.851C96.8674 127.837 96.8674 127.823 96.8639 127.811C97.3155 127.706 97.7659 127.582 98.2151 127.496C99.079 127.329 99.9489 127.19 100.82 127.065C102.61 126.809 104.411 126.641 106.21 126.471C106.656 126.428 106.661 125.728 106.21 125.77C103.626 126.006 101.028 126.23 98.4777 126.728C97.8383 126.851 97.2036 126.991 96.5727 127.149C96.2744 127.223 95.9548 127.338 95.6422 127.341C95.6232 127.341 95.6041 127.341 95.5852 127.34C94.9732 127.321 94.884 126.798 95.2203 126.362C95.2619 126.308 95.3047 126.255 95.3487 126.204C95.9429 125.496 96.6831 125.024 97.4461 124.535C98.3006 124.418 99.1527 124.16 99.9893 123.97C102.055 123.5 104.12 123.029 106.187 122.56C106.592 122.468 106.42 121.846 106.014 121.937C104.446 122.292 102.877 122.647 101.308 123.002L99.0125 123.522C98.5538 123.625 97.9808 123.833 97.4413 123.908C97.1752 123.945 96.9174 123.949 96.6844 123.895C95.9322 123.717 95.8942 122.778 96.2186 122.22C96.5822 121.593 97.2691 121.201 97.8788 120.846C98.9352 120.23 100.059 119.787 101.157 119.277C101.352 119.234 101.547 119.191 101.742 119.148C102.876 118.899 104.171 118.777 105.238 118.32C105.558 118.184 105.383 117.681 105.067 117.688C104.239 117.706 103.373 118 102.563 118.175C101.688 118.365 100.81 118.554 99.9347 118.742C99.8467 118.761 99.3262 118.928 99.2478 118.891C99.1979 118.867 99.18 118.694 99.1634 118.58C99.1098 118.205 99.0707 117.811 99.1289 117.434C99.2573 116.59 99.962 116.193 100.675 115.869C102.263 115.149 104.004 114.698 105.736 114.517C106.136 114.475 106.535 114.449 106.937 114.436C107.408 114.422 107.797 114.339 108.036 114.803C108.411 115.534 108.618 116.475 108.742 117.31ZM106.537 143.825C106.191 142.63 106.285 141.354 106.048 140.135C105.925 139.506 105.758 138.882 105.576 138.268C105.429 137.772 105.184 137.244 105.156 136.726C105.154 136.692 105.195 136.672 105.223 136.688C105.711 136.967 106.086 137.571 106.364 138.044C106.697 138.611 106.952 139.205 107.157 139.829C107.566 141.072 107.902 142.572 107.374 143.825C107.217 144.198 106.666 144.273 106.537 143.825ZM95.8455 127.993C96.1379 127.965 96.4302 127.909 96.7225 127.844C96.3957 128.162 96.0939 128.545 95.9262 128.97C95.9002 128.644 95.8668 128.318 95.823 127.994C95.8301 127.994 95.8384 127.994 95.8455 127.993ZM93.0359 152.874C92.5204 152.514 92.1447 152.012 91.7075 151.569C91.2776 151.132 91.9497 150.461 92.3798 150.897C92.7528 151.275 93.0767 151.748 93.5156 152.054C93.7269 152.201 93.8247 152.467 93.6863 152.703C93.5639 152.912 93.2466 153.021 93.0359 152.874ZM90.1609 139.061C91.102 138.654 92.0275 138.212 93.0124 137.919C93.601 137.744 93.8502 138.661 93.2652 138.835C92.3581 139.104 91.5073 139.507 90.6407 139.881C90.0843 140.121 89.6008 139.303 90.1609 139.061ZM80.2222 138.776C79.992 138.209 80.9122 137.965 81.139 138.524C81.4 139.168 81.6993 139.795 81.9604 140.439C82.1903 141.006 81.2704 141.25 81.0436 140.691C80.7826 140.047 80.4832 139.42 80.2222 138.776ZM70.4129 150.105C70.2596 150.309 70.004 150.42 69.7625 150.275C69.5602 150.154 69.4368 149.832 69.592 149.625C70.0451 149.022 70.5042 148.426 71.0353 147.888C71.4658 147.452 72.1377 148.124 71.7075 148.56C71.2332 149.04 70.8177 149.566 70.4129 150.105ZM69.0103 86.5422C69.4466 86.84 69.829 87.2017 70.2018 87.5739C70.6352 88.0066 69.9628 88.6781 69.5294 88.2454C69.2153 87.9317 68.8984 87.6133 68.5304 87.3623C68.3178 87.2173 68.2223 86.9474 68.3598 86.7126C68.4831 86.5022 68.7981 86.3976 69.0103 86.5422ZM83.2816 101.826C83.0349 102.32 82.8128 102.803 82.7988 103.364C82.7838 103.975 81.8331 103.976 81.8482 103.364C81.8664 102.63 82.1373 101.994 82.4607 101.347C82.7343 100.799 83.554 101.281 83.2816 101.826ZM88.518 89.5512C89.0291 89.2108 89.5046 90.0339 88.998 90.3713C88.5873 90.6447 88.1764 90.9184 87.7657 91.1919C87.2549 91.5322 86.7794 90.7092 87.2859 90.3718C87.6966 90.0982 88.1073 89.8247 88.518 89.5512ZM65.8063 111.013C65.719 111.616 64.803 111.358 64.8894 110.76C65.0231 109.836 65.1863 108.925 65.4372 108.025C65.6014 107.436 66.5182 107.688 66.3539 108.277C66.103 109.177 65.9398 110.089 65.8063 111.013ZM62.4731 121.892C61.8612 121.88 61.8611 120.93 62.4731 120.943C63.0269 120.954 63.5713 121.1 64.1054 121.233C64.6996 121.381 64.4463 122.297 63.8527 122.149C63.4011 122.036 62.9413 121.902 62.4731 121.892ZM61.2426 143.809C61.0324 143.911 60.8167 144.003 60.6042 144.1C60.1786 144.294 59.7533 144.489 59.3281 144.684C58.4423 145.09 57.5569 145.498 56.6724 145.907C54.9017 146.726 53.1174 147.515 51.3424 148.325C49.5324 149.151 47.7271 149.988 45.9241 150.83C45.0747 151.226 44.2188 151.608 43.3646 151.993C42.6342 152.323 41.7314 152.9 40.9296 152.954C40.8883 152.957 40.8746 152.905 40.8981 152.878C41.201 152.534 41.6842 152.334 42.0823 152.11C42.489 151.881 42.9032 151.666 43.3156 151.448C44.1753 150.993 45.036 150.542 45.904 150.103C47.6402 149.225 49.3798 148.354 51.1197 147.483C52.8942 146.596 54.6664 145.702 56.4565 144.846C57.2993 144.443 58.1429 144.041 58.987 143.64C59.4443 143.423 59.9018 143.207 60.3594 142.99C60.557 142.897 60.7526 142.796 60.9546 142.712C61.2231 142.601 61.4271 142.624 61.704 142.556C62.1556 142.444 62.3511 143.018 62.0044 143.268C61.719 143.474 61.5688 143.65 61.2426 143.809ZM54.8956 153.547C54.798 153.31 55.0023 153.022 55.2276 152.963C55.4975 152.892 55.7139 153.056 55.8124 153.295C56.073 153.928 56.4443 154.509 56.9221 155C57.3492 155.439 56.6773 156.11 56.2499 155.672C55.651 155.056 55.2208 154.337 54.8956 153.547ZM50.2264 138.302C49.793 137.869 50.4654 137.198 50.8986 137.631L52.1307 138.861C52.5641 139.294 51.8916 139.966 51.4585 139.533L50.2264 138.302ZM37.5855 136.295C36.6997 136.555 35.6665 136.794 35.0626 137.548C35.0331 137.585 34.9836 137.538 35.0013 137.501C35.7744 135.9 37.9917 135.338 39.5268 134.777C40.6127 134.38 41.7268 134.051 42.8503 133.757C42.738 132.477 43.0477 131.105 43.1553 129.831C43.2702 128.47 43.3638 127.106 43.4118 125.742C43.4609 124.35 43.4727 122.948 43.4269 121.556C43.3812 120.169 43.201 118.798 43.1221 117.416C43.1144 117.282 43.3008 117.276 43.341 117.386C43.8075 118.669 44.0068 120.091 44.1587 121.443C44.3151 122.837 44.367 124.227 44.347 125.628C44.3264 127.07 44.2425 128.507 44.1273 129.944C44.0728 130.625 44.0094 131.305 43.9496 131.986C43.904 132.505 43.8829 133.02 43.7769 133.523C44.4545 133.357 45.1336 133.2 45.8106 133.047C47.9695 132.56 50.1373 132.109 52.2871 131.582C53.3424 131.324 54.3826 131.015 55.4331 130.74C56.4223 130.481 57.4664 130.168 58.482 130.052C58.8444 130.011 58.8906 130.506 58.6506 130.674C57.8252 131.253 56.7289 131.656 55.7755 131.981C54.8186 132.306 53.8239 132.54 52.8431 132.781C50.7978 133.283 48.7331 133.694 46.6715 134.122C44.6128 134.55 42.5501 134.974 40.5145 135.501C39.5342 135.755 38.5572 136.01 37.5855 136.295ZM32.7315 110.886C32.2022 111.197 31.7243 110.376 32.2517 110.066C32.9418 109.662 33.6773 109.357 34.4187 109.061C34.9877 108.833 35.2325 109.752 34.6715 109.977C34.0052 110.243 33.3516 110.523 32.7315 110.886ZM30.8146 146.172C30.2839 146.48 29.8057 145.658 30.3349 145.352C31.0781 144.922 31.892 144.634 32.6622 144.258C33.2101 143.99 33.6914 144.809 33.1419 145.078C32.3719 145.455 31.5578 145.742 30.8146 146.172ZM29.9527 126.142C30.4658 126.629 31.1507 126.858 31.7964 127.114C32.3595 127.337 32.1125 128.255 31.5437 128.03C30.7391 127.711 29.9196 127.42 29.2804 126.814C28.8357 126.392 29.5091 125.721 29.9527 126.142ZM35.6297 98.9401C36.1938 99.1612 35.9468 100.079 35.3769 99.8561C34.7449 99.6084 34.0923 99.4199 33.4603 99.1722C32.8963 98.9512 33.1432 98.0331 33.7131 98.2563C34.3451 98.504 34.9977 98.6925 35.6297 98.9401ZM45.6444 88.1355C46.2438 88.0346 46.4991 88.9499 45.8972 89.0514C45.1504 89.1774 44.415 89.3247 43.7068 89.5985C43.1348 89.8195 42.8894 88.9009 43.454 88.6827C44.1624 88.4089 44.8978 88.2614 45.6444 88.1355ZM48.9535 114.442C48.4039 114.172 48.8862 113.353 49.4333 113.622C50.0099 113.905 50.6073 114.124 51.2364 114.258C51.8355 114.386 51.5803 115.301 50.9836 115.174C50.2756 115.023 49.6019 114.761 48.9535 114.442ZM52.0791 99.624C52.6709 99.4621 52.9212 100.378 52.3318 100.54C51.295 100.824 50.2275 100.971 49.183 101.224C48.5877 101.368 48.3359 100.452 48.9302 100.308C49.9747 100.055 51.0423 99.908 52.0791 99.624ZM65.3372 94.9738C65.939 95.085 65.6825 96.0003 65.0845 95.8897C64.4479 95.7721 63.8028 95.7702 63.1573 95.7698C62.5446 95.7696 62.5457 94.8198 63.1573 94.8201C63.8906 94.8204 64.6144 94.8402 65.3372 94.9738ZM108.578 99.9358C107.024 99.7874 105.469 99.6687 103.911 99.5797C103.838 99.576 103.767 99.5714 103.694 99.5677C103.686 99.5512 103.676 99.5356 103.665 99.519C103.156 98.7734 102.782 98.028 102.457 97.1849C102.147 96.3824 101.847 95.555 101.369 94.8308C100.824 94.0057 100.088 93.3601 99.2822 92.8005C98.7932 93.129 98.3394 93.5137 97.9242 93.9214C97.4872 94.3503 96.8148 93.6788 97.2519 93.2498C97.6209 92.8875 98.0147 92.5528 98.431 92.2504C97.9503 91.9586 97.4599 91.6843 96.9814 91.4115C95.188 90.3894 93.3521 89.4443 91.478 88.5801C90.6069 88.1775 89.7252 87.8202 88.8374 87.4581C88.3596 87.2635 87.8879 87.0129 87.4102 86.7874C87.4447 86.4501 87.3436 86.0726 87.0846 85.8506C86.8933 85.6879 86.7447 85.6274 86.5165 85.5124C86.4654 85.4944 86.4345 85.4837 86.4203 85.4778C86.431 85.4802 86.4619 85.4897 86.5128 85.5063C86.6342 85.5622 86.6437 85.5455 86.5415 85.4576C86.5355 85.2654 86.1563 84.8594 86.0697 84.6611C85.7679 83.9807 85.674 83.2613 85.2283 82.6416C84.6139 81.7879 83.5824 81.4651 82.6209 81.7547C82.5212 80.7278 82.4951 79.6558 82.1076 78.7392C82.0969 78.7144 82.0625 78.7036 82.047 78.7309C81.643 79.4184 81.6085 80.184 81.5776 80.9771C81.5479 81.7215 81.5763 82.4825 81.6739 83.2221C81.6121 83.2696 81.5491 83.3148 81.4837 83.3586C81.1771 83.5605 80.8468 83.716 80.4998 83.8313C79.839 84.0496 79.1462 84.1446 78.4534 84.1778C76.6649 84.2633 74.8217 84.0828 73.0629 83.7765C71.2839 83.4667 68.5565 83.0013 66.9736 82.1121C65.9289 81.5257 64.9653 80.8097 63.9883 80.1163C64.3425 78.9766 64.4329 77.7514 64.0763 76.7886C64.0336 76.6734 63.8529 76.6521 63.8185 76.7886C63.5951 77.7075 63.5297 78.6311 63.2326 79.5394C63.2278 79.5524 63.2231 79.5668 63.2183 79.5797C63.1256 79.5169 63.0329 79.4551 62.9403 79.3933C62.7263 79.2521 62.4352 79.3578 62.3068 79.5595C60.2544 82.79 57.0043 82.9752 53.5913 83.5523C49.8561 84.1837 46.1021 84.8652 42.5108 86.1011C39.0764 87.2837 35.7941 89.0051 33.1939 91.5766C32.6053 92.1589 32.0548 92.7792 31.5353 93.4268C32.038 93.4901 32.5365 93.5886 33.0286 93.7431C33.6113 93.9259 33.3609 94.8426 32.7758 94.6589C32.1434 94.4604 31.5039 94.3622 30.8579 94.3133C29.0911 96.7279 27.7136 99.4657 26.5223 102.161C24.2374 107.327 22.7502 112.83 22.0658 118.432C22.4416 118.207 22.8241 117.993 23.2161 117.793C23.7609 117.517 24.2414 118.336 23.696 118.614C23.0904 118.921 22.5022 119.26 21.9322 119.628C21.6833 122.08 21.5868 124.548 21.6452 127.013C21.7843 132.887 22.5781 138.933 24.3737 144.538C25.2543 147.289 26.4213 150.017 28.1599 152.342C28.9466 153.395 29.8403 154.345 30.8932 155.136C31.403 155.521 31.9425 155.864 32.5118 156.154C33.245 156.529 34.2005 156.653 34.8327 157.183C35.0406 157.358 35.2011 157.588 35.3223 157.848C35.2522 158.342 35.2439 158.837 35.3793 159.331C35.4221 159.485 35.5386 159.611 35.6824 159.672C35.6848 159.714 35.6848 159.756 35.6848 159.796C35.6848 159.815 35.7133 159.82 35.7168 159.801C35.7228 159.764 35.7287 159.727 35.7347 159.69C35.781 159.705 35.8297 159.712 35.8796 159.712C37.6848 159.719 39.4922 159.675 41.2997 159.614C41.16 159.186 41.0086 158.762 40.8632 158.334C40.6658 157.753 41.5843 157.506 41.78 158.082C41.95 158.582 42.1278 159.077 42.286 159.579C44.2227 159.507 46.1588 159.421 48.0914 159.357C52.202 159.22 56.3115 159.175 60.4231 159.089C66.8084 158.954 73.2402 158.677 79.6353 158.948C79.8565 158.479 80.104 158.02 80.3387 157.558C80.6156 157.012 81.4356 157.493 81.1597 158.037C80.9965 158.359 80.8275 158.676 80.667 158.997C81.9622 159.064 83.2561 159.153 84.5473 159.274C86.7505 159.48 88.9325 159.847 91.1334 160.075C93.371 160.308 95.5601 160.267 97.78 159.897C98.1793 159.831 98.4146 159.59 98.512 159.291C98.5155 159.289 98.518 159.287 98.5202 159.283C98.6343 159.15 98.7414 159.04 98.8518 158.944C98.9838 158.858 99.1264 158.786 99.294 158.722C99.6065 158.603 99.9322 158.531 100.263 158.482C100.626 158.428 100.995 158.423 101.358 158.378C101.665 158.338 101.964 158.28 102.264 158.209C102.802 158.081 103.313 157.913 103.822 157.691C104.265 157.498 104.665 157.22 105.043 156.917C105.825 156.346 106.503 155.617 107.095 154.86C107.439 154.417 107.764 153.958 108.058 153.479C108.572 152.65 109.009 151.79 109.451 150.922C109.612 150.665 109.758 150.401 109.892 150.132C109.028 149.878 108.156 149.671 107.24 149.656C106.627 149.646 106.627 148.697 107.24 148.706C108.29 148.723 109.284 148.968 110.271 149.26C110.319 149.133 110.365 149.004 110.408 148.874C110.525 148.602 110.623 148.323 110.704 148.04C110.751 147.912 110.799 147.784 110.846 147.656C110.953 147.212 111.06 146.767 111.168 146.321C111.383 145.609 111.553 144.886 111.678 144.154C111.783 143.672 111.863 143.186 111.918 142.694C112.085 141.504 112.22 140.315 112.23 139.111C112.215 138.369 112.168 137.629 112.087 136.891C112.052 136.39 111.994 135.892 111.916 135.397C111.814 134.661 111.713 133.932 111.543 133.205C111.415 132.714 111.288 132.222 111.161 131.731C110.844 130.706 110.47 129.702 110.038 128.72C110.014 128.658 109.894 128.523 109.822 128.521C109.767 128.52 109.691 128.57 109.716 128.637C109.718 128.643 109.721 128.65 109.723 128.656C109.698 128.6 109.675 128.543 109.65 128.487C109.628 128.435 109.545 128.33 109.481 128.332C109.477 128.332 109.474 128.332 109.469 128.333C109.486 128.321 109.501 128.305 109.516 128.288C109.943 127.783 110.22 127.119 110.525 126.535C110.779 126.053 111.017 125.545 111.086 125C111.147 124.522 111.065 124.05 110.764 123.663C110.422 123.223 109.778 123.016 110.136 122.38C110.542 121.656 111.14 121.028 110.544 120.205C110.241 119.786 109.761 119.556 109.405 119.191C108.995 118.77 108.8 118.206 108.811 117.63C108.836 117.644 108.869 117.637 108.881 117.601C109.225 116.561 108.976 115.419 108.623 114.407C108.43 113.857 108.023 113.706 107.548 113.679C109.602 109.672 111.524 105.601 113.236 101.436C113.293 101.3 113.349 101.163 113.405 101.027C113.488 100.823 113.312 100.551 113.109 100.506C111.628 100.181 110.086 100.078 108.578 99.9358Z" fill="black"/>
<path fill-rule="evenodd" clip-rule="evenodd" d="M95.3558 38.4474C95.3159 37.0277 93.249 36.4383 92.6518 37.8443C92.6147 37.8819 92.5744 37.9181 92.5366 37.9505C92.7236 37.7904 92.3327 38.0554 92.2691 38.0881C92.2147 38.1161 92.1591 38.1414 92.1036 38.1676C91.7195 34.571 90.4156 30.6938 87.0463 28.8885C82.347 26.6119 76.9169 26.1675 71.7614 26.3937C69.1497 26.5485 66.1338 26.9657 63.8135 25.6458C63.0905 25.2345 62.5109 24.5871 61.6939 24.3329C59.1148 23.6359 57.9449 26.2818 58.2962 28.4576C57.1961 28.4662 56.1048 29.0747 55.6301 30.0764C55.3513 30.6693 55.3561 31.3091 55.1157 31.9042C54.3781 33.4131 53.3227 34.4978 53.9194 36.3273C52.8699 37.5203 53.4683 39.3264 54.3151 40.4686C54.7333 41.0627 55.2314 41.633 55.5377 42.298C55.8351 42.9347 55.3862 43.6898 55.1364 44.2933C53.2897 48.6681 53.3952 53.486 54.3889 58.0491C52.3948 58.9135 51.7964 61.6156 53.0967 63.317C53.5441 63.9185 54.0899 64.1417 54.709 64.5117C55.4923 64.9425 54.8525 66.6677 55.1034 67.5009C55.4442 69.535 57.2981 70.7876 59.1312 69.4667C60.2943 69.2909 61.2326 72.6719 62.0773 73.5206C62.5977 74.2044 63.1755 74.8184 63.8036 75.3851C65.6753 80.1963 75.2663 82.636 80.0081 82.3575C84.9738 81.8381 88.3237 77.6251 91.1131 73.8861C92.5454 71.8938 93.477 69.664 93.8158 67.232C94.1562 64.7878 94.0073 62.3391 93.7772 59.8919C93.2939 54.6924 92.5314 47.2015 92.0391 41.9459C93.8183 41.7995 95.4098 40.2861 95.3558 38.4474V38.4474Z" fill="white"/>
<path fill-rule="evenodd" clip-rule="evenodd" d="M56.5689 35.3213C56.5672 35.3286 56.5697 35.3342 56.5714 35.342C56.5718 35.3398 56.5721 35.3386 56.5727 35.3359C56.5713 35.3299 56.5702 35.326 56.5689 35.3213" fill="#4F66AF"/>
<path fill-rule="evenodd" clip-rule="evenodd" d="M56.5684 35.397C56.5619 35.3902 56.5526 35.3851 56.5433 35.3782C56.5431 35.3784 56.543 35.3786 56.5429 35.3789C56.5515 35.3846 56.5599 35.3911 56.5684 35.397" fill="#4F66AF"/>
<path fill-rule="evenodd" clip-rule="evenodd" d="M95.0725 39.1192C95.6569 38.6341 96.5776 39.0808 96.3796 39.8794C96.1641 40.7492 95.231 41.3435 94.4607 41.7008C93.6678 42.0685 92.8955 42.1394 92.0305 42.0993L92.0198 42.0969V42.0969C92.2599 43.0589 92.3961 44.0589 92.5798 45.0267C92.813 46.2545 93.0424 47.4829 93.2683 48.7119C93.4868 49.8999 93.7631 51.0893 93.931 52.2832C94.1004 53.4883 94.263 54.6943 94.4293 55.8998C94.707 57.9132 94.9311 59.9359 95.1674 61.955L95.28 62.9108C95.5167 64.9338 95.7072 66.9592 95.2587 68.9724C94.8384 70.8591 93.8915 72.619 92.7932 74.194C91.7176 75.7362 90.516 77.219 89.197 78.5604C86.6528 81.1475 83.5155 83.2195 79.8367 83.6038C78.2527 83.7693 76.561 83.5852 75.0718 83.01L74.9729 82.9714C73.4655 82.3768 71.6195 81.3588 71.2272 79.6882C70.9863 78.6634 72.0433 77.8633 72.9702 78.3496C73.3996 78.575 73.7225 78.8324 74.075 79.1553L74.1375 79.2129C74.4256 79.4802 74.5364 79.5623 74.8688 79.7714C75.5506 80.1999 76.0616 80.4026 76.836 80.5973C78.2637 80.9561 79.8045 80.8994 81.2539 80.4751C84.3311 79.5742 86.7183 77.2235 88.7634 74.8665C89.8738 73.5866 90.9278 72.244 91.7406 70.7522C92.5935 69.1871 92.9872 67.5439 92.9636 65.7631C92.9368 63.7537 92.6589 61.7365 92.4765 59.7367C92.2906 57.6979 92.1188 55.6598 91.9674 53.6181C91.8255 51.7035 91.8118 49.7802 91.7623 47.8596L91.7525 47.4996C91.7234 46.48 91.7032 45.46 91.68 44.4402C91.6571 43.4234 91.5765 42.3936 91.6813 41.381C91.6888 41.3073 91.7883 41.2886 91.8125 41.3632C91.8743 41.5529 91.9284 41.7456 91.9795 41.9394C91.9873 41.9334 91.9961 41.9281 92.0068 41.9244C92.6847 41.6917 93.3089 41.2271 93.8175 40.7261C94.3029 40.248 94.5564 39.5477 95.0725 39.1192ZM57.9867 24.8729C58.4125 23.1258 60.3287 22.7355 61.7456 23.5769C62.4271 23.9815 62.9728 24.565 63.6094 25.0288C64.2423 25.4899 64.9418 25.8602 65.6799 26.1217C67.1463 26.6412 68.6931 26.8301 70.2428 26.8369C74.0148 26.8534 77.7095 25.7944 81.487 25.9125C84.41 26.0039 87.5124 26.8669 89.6326 28.9778C90.7747 30.1149 91.5107 31.5768 91.9055 33.1289C92.09 33.8543 92.2275 34.5972 92.336 35.3385L92.3625 35.5237C92.4232 35.957 92.5207 36.4156 92.5297 36.8534C92.5379 37.2466 92.4383 37.6581 92.3844 38.0473C92.2706 38.8676 90.9987 38.7742 90.816 38.0473C90.3998 36.3922 90.574 34.684 90.0654 33.0346C89.6144 31.572 88.7403 30.2931 87.4739 29.4185C82.131 25.7286 75.2794 28.8186 69.3927 28.5315C67.9539 28.4614 66.494 28.2392 65.1368 27.7443C64.437 27.489 63.748 27.1777 63.1135 26.7862C62.5322 26.4277 62.0285 25.9773 61.4904 25.5628L61.253 25.3825C60.8841 25.1052 60.256 24.6717 59.8838 25.0385C59.7219 25.1982 59.7121 25.5592 59.715 25.8348L59.7169 25.9594C59.7338 27.1298 59.9725 28.298 59.5341 29.4287C59.3341 29.9444 58.7783 30.2696 58.2497 29.9775L58.2224 29.9619C57.1042 29.2973 55.6352 30.6327 56.4941 31.7378L56.5208 31.7712C57.0041 32.3579 56.7465 33.3912 55.8815 33.3886L55.8504 33.3881C54.3093 33.34 53.6255 35.2641 54.9539 36.1048L54.9947 36.1299C56.0732 36.7747 55.1272 38.3249 54.0219 37.7926C54.1156 37.8377 53.9528 37.8371 53.8596 37.962C53.7701 38.082 53.7634 38.1857 53.7847 38.3372C53.8492 38.7962 54.2533 39.183 54.5806 39.4734C55.324 40.1331 56.2456 40.5886 57.1953 40.866C60.9993 41.977 64.9019 40.618 68.6082 39.7972C72.4722 38.9416 76.8364 38.597 80.2062 41.0249C80.2463 41.0537 80.2112 41.1179 80.1669 41.0923C77.7485 39.6892 74.7866 39.8137 72.1431 40.3889C68.6765 41.1433 65.2403 42.5474 61.6901 42.9174C62.6868 44.6751 63.1039 46.7512 62.8377 48.7618C62.6544 50.1458 62.103 51.3463 61.4518 52.5629L61.3276 52.7947C60.7469 53.8867 60.2972 54.9183 60.29 56.1834C60.283 57.4403 58.4126 57.7053 58.0956 56.4802C57.3758 53.698 59.998 51.5065 61.0679 49.2122C61.9824 47.2509 62.0106 44.9642 61.2706 42.9561C60.4356 43.0231 59.5941 43.0301 58.7442 42.9544C58.0142 42.8892 57.2631 42.7578 56.5311 42.5498L56.2382 43.7797C55.8502 45.418 55.4907 47.0552 55.3818 48.7568C55.3016 50.0072 55.3058 51.2637 55.4279 52.511C55.5334 53.5883 55.7561 54.6272 55.9827 55.679C56.1772 55.9352 56.2765 56.3273 56.2218 56.6397C57.4839 57.0027 58.4766 57.9976 58.8393 59.3153C58.8614 59.3955 58.7489 59.4407 58.7069 59.3711C57.8464 57.9448 55.6305 57.4199 54.2288 58.3622C52.8902 59.2619 52.3622 61.0783 53.1199 62.5163C53.5185 63.2723 54.1094 63.8036 54.8714 64.1695L55.0246 64.2414C55.4238 64.4302 55.7904 64.6359 56.0472 65.015C56.3803 65.5067 56.3915 66.0265 56.36 66.5885L56.3464 66.8162C56.3254 67.1928 56.3206 67.5806 56.4329 67.9429L56.4584 68.0234C56.488 68.1138 56.5192 68.1935 56.5733 68.2798C56.5894 68.3055 56.7411 68.4541 56.7905 68.5079L56.8528 68.5266V68.5266L56.9224 68.5295V68.5295C56.9997 68.5307 57.1012 68.4972 57.0679 68.5204L57.0769 68.5152C57.1062 68.497 57.1332 68.4777 57.1559 68.4606L57.1991 68.4269C57.2999 68.2812 57.4264 68.1609 57.5815 68.0691L57.7297 68.0032V68.0032C58.1146 67.5972 58.7741 67.8105 59.0501 68.215C59.2487 68.5059 59.3555 68.8016 59.3643 69.0933C59.3953 69.0436 59.4642 69.0164 59.5081 69.072L59.7697 69.4051C60.7707 70.6829 61.7545 71.9686 62.892 73.1334C63.5186 73.7752 64.1927 74.3783 64.8973 74.9338C65.4988 75.4081 66.6399 75.8645 66.6574 76.7284C66.6628 77.0088 66.4635 77.2074 66.2197 77.3027C65.426 77.6123 64.4453 76.5588 63.872 76.0462L63.8252 76.0048C63.1236 75.3909 62.4833 74.717 61.8924 73.9964C60.7448 72.5965 59.7852 70.9854 59.3623 69.213C59.3424 69.5222 59.2096 69.8253 58.951 70.1113C58.6067 70.492 58.1355 70.7588 57.6322 70.8688C56.492 71.1177 55.3787 70.7078 54.7002 69.7586C54.1268 68.9562 53.958 67.8966 54.032 66.9271L54.0411 66.8108C54.0515 66.6553 54.0647 66.37 54.105 66.2486L53.746 66.0517V66.0517C53.3058 65.8177 52.8978 65.5109 52.5317 65.1737C51.0601 63.8184 50.3218 61.6157 50.9945 59.6883C51.4153 58.4826 52.2996 57.4334 53.4319 56.8881C53.2426 56.4512 53.1793 55.9323 53.1079 55.4732L53.0959 55.3972C52.9748 54.6441 52.8735 53.8814 52.8348 53.1192C52.7626 51.6957 52.8504 50.259 53.0743 48.852C53.438 46.5667 54.1908 44.1432 55.5707 42.226C54.518 41.8084 53.5489 41.2037 52.801 40.3641C52.0194 39.4868 51.5211 38.2307 52.1255 37.1165C52.2795 36.8325 52.4802 36.5938 52.7109 36.4042C52.3109 35.6496 52.1815 34.7578 52.4283 33.9053C52.7233 32.8862 53.5241 32.0914 54.4916 31.7203C54.2566 30.7547 54.4487 29.7161 55.1666 28.9114C55.8786 28.1131 56.9844 27.8224 58.0079 28.0049C58.0634 26.9779 57.7398 25.8857 57.9867 24.8729ZM55.1168 60.9285C56.0552 60.4698 57.1673 60.5427 58.1045 60.9775L58.168 61.0076C59.1913 61.5033 60.5467 62.6615 60.2214 63.8934C60.031 64.6138 59.2298 64.8598 58.6085 64.5488C58.0896 64.2889 57.9712 63.8244 57.7108 63.3577C57.5267 63.0276 57.2992 62.7697 57.0319 62.5043C56.4685 61.9453 55.8357 61.53 55.1168 61.1977C55.0132 61.1497 55.0168 60.9776 55.1168 60.9285ZM78.7594 36.0291C78.6714 35.989 78.7352 35.8514 78.8238 35.8766C81.1816 36.5492 83.38 38.0591 84.6937 40.1549C84.7738 40.2828 84.786 40.4933 84.6937 40.6198L84.6512 40.6773C84.5909 40.7558 84.5315 40.8138 84.4182 40.8314C84.2052 40.8644 84.0202 40.809 83.8976 40.6198C82.6034 38.6222 80.9454 37.028 78.7594 36.0291ZM94.5436 36.4247C94.7434 36.0867 95.273 36.1548 95.3785 36.5337L95.3937 36.5667C95.4506 36.6959 95.4247 36.7223 95.3186 36.6492C95.5814 36.8655 95.7004 37.1877 95.6201 37.5342C95.1861 39.4052 93.0647 40.7413 91.2153 40.5574C91.0539 40.5414 91.032 40.3432 91.1782 40.2841C91.8897 39.9963 92.5212 39.5289 93.029 38.9554C93.5226 38.3979 93.7302 37.76 93.9957 37.0867C94.0952 36.834 94.2502 36.652 94.4685 36.5526C94.4974 36.5127 94.5226 36.4702 94.5436 36.4247ZM84.0271 35.2225L84.0398 35.2233C84.9901 35.3459 85.8121 35.8144 86.4793 36.5008C87.122 37.1619 87.9331 38.2527 87.8636 39.2227C87.8176 39.8659 86.9023 40.2335 86.5607 39.5754C86.3569 39.1826 86.3107 38.7521 86.168 38.3368C86.037 37.9562 85.8562 37.5948 85.6396 37.2559C85.1939 36.5576 84.5809 35.966 83.9532 35.4322C83.8797 35.3697 83.9309 35.2228 84.0271 35.2225V35.2225ZM59.6549 34.9374C59.4442 34.737 59.6634 34.3953 59.9313 34.463C61.3447 34.8205 62.7444 35.2552 64.2138 35.2984C64.9477 35.3199 65.6775 35.2621 66.4046 35.1672L66.7727 35.1184C67.3396 35.0445 67.9163 34.9864 68.4767 35.1028C68.8504 35.1803 68.9233 35.6611 68.6905 35.912C67.5912 37.0967 65.4706 36.9834 64.0126 36.7838C62.4293 36.5667 60.8318 36.0574 59.6549 34.9374ZM85.1778 31.2446C85.0811 31.1105 85.2439 30.899 85.3979 30.9585C86.8025 31.5008 88.2745 32.9127 88.6615 34.39C88.7637 34.7802 88.2711 35.0749 87.9818 34.7852C87.4428 34.2454 87.0623 33.6077 86.6066 33.0009C86.1526 32.3961 85.6212 31.8588 85.1778 31.2446ZM62.1639 31.9044C62.0513 31.7919 62.1646 31.568 62.3265 31.6253C63.2409 31.9488 64.1623 32.2287 65.123 32.3756C66.107 32.5259 67.1002 32.4117 68.0893 32.4726C68.4894 32.4971 68.7619 33.119 68.3171 33.3125C66.3406 34.1722 63.6561 33.3927 62.1639 31.9044ZM64.6901 29.9762C64.533 29.86 64.6224 29.5414 64.8362 29.6303C65.707 29.9925 66.5878 30.0816 67.5223 30.0443C67.8675 30.0304 67.9401 30.5724 67.6037 30.6455C66.5706 30.87 65.5344 30.5997 64.6901 29.9762Z" fill="black"/>
<path fill-rule="evenodd" clip-rule="evenodd" d="M80.5232 72.0551C79.7243 71.7296 79.0115 71.1865 78.4904 70.4927C78.3092 70.2516 78.2623 69.9969 78.3003 69.7639C78.343 69.502 78.4981 69.2646 78.7096 69.1054C78.9218 68.9457 79.1873 68.8669 79.4439 68.9071C79.6668 68.942 79.8888 69.0639 80.0645 69.3169L80.1012 69.3675C80.411 69.7862 80.8147 70.1297 81.2747 70.3512C81.7181 70.5646 82.2139 70.6642 82.7271 70.6063C83.7044 70.496 84.378 69.968 85.0939 69.251C85.1827 69.1604 85.2715 69.0671 85.3607 68.9722C85.4171 68.8862 85.4953 68.8309 85.5821 68.8019C85.6785 68.7697 85.7876 68.7716 85.8875 68.8064C85.9838 68.84 86.0699 68.9036 86.1277 68.9883C86.1826 69.0688 86.2137 69.1683 86.2036 69.2827C86.1381 70.0258 85.7492 70.689 85.1968 71.2097C84.5833 71.7881 83.7701 72.1882 83.0044 72.3285C82.1609 72.4831 81.3014 72.3723 80.5232 72.0551V72.0551ZM83.4023 60.5915C84.2997 61.1364 85.667 62.4071 84.7017 63.7581C83.5653 64.9492 81.9292 63.5835 81.123 62.9658C80.3754 62.4871 79.5355 63.7183 80.2291 64.2772C86.0549 68.5863 88.4192 60.734 83.8562 59.9508C83.3538 59.8645 83.1672 60.4229 83.4023 60.5915ZM72.9622 55.579C73.0613 54.3494 74.9357 54.0702 75.1222 55.2869C75.2891 56.3768 75.0926 57.3779 74.6012 58.3592C74.1317 59.2966 72.9515 58.8592 72.8623 58.0056C72.7427 56.8614 72.9005 56.3438 72.9622 55.579ZM87.2304 55.0346C87.4917 54.6927 87.869 54.4593 88.3211 54.5912C89.7335 55.0035 89.3172 57.0067 88.8211 57.9818C88.5516 58.5113 87.6804 58.6455 87.2867 58.1793C86.645 57.419 86.3377 55.9007 87.1535 55.1518C87.1756 55.1131 87.2002 55.074 87.2304 55.0346ZM74.5814 50.199L74.8045 50.16C75.4947 50.0407 76.3528 49.9262 76.8411 50.4805C77.1 50.7744 77.1892 51.3208 76.8411 51.6022C76.2288 52.0972 75.5519 51.9054 74.8182 51.9473C74.2136 51.982 73.6325 52.0819 73.05 52.2483C71.7723 52.6131 70.7311 53.2791 69.6399 54.0104C69.4967 54.1064 69.3505 53.9234 69.4188 53.7896C70.0488 52.5569 71.2696 51.5444 72.4924 50.9271C73.1451 50.5977 73.8593 50.3244 74.5814 50.199ZM85.9429 49.6468L86.1137 49.6817C87.972 50.0698 90.3864 50.8449 91.2664 52.6684C91.2999 52.9263 91.2645 52.9816 91.2357 53.0177L91.2261 53.0297C91.2023 53.0605 91.1834 53.103 91.0715 53.1381C91.0405 53.1307 91.0091 53.1229 90.9774 53.1146C90.5741 53.009 90.2549 52.8635 89.9459 52.7125L89.6109 52.5477C89.2223 52.3573 88.8302 52.1738 88.4146 52.0384C87.5279 51.7494 86.6157 51.5459 85.6895 51.4372C85.4887 51.4136 85.2954 51.3459 85.1429 51.2299C84.9981 51.1198 84.8875 50.9674 84.8371 50.7647C84.7717 50.5024 84.7905 50.3039 84.9314 50.0673C85.0373 49.8896 85.1888 49.7665 85.3628 49.6957C85.5402 49.6236 85.7422 49.6066 85.9429 49.6468Z" fill="black"/>
<path fill-rule="evenodd" clip-rule="evenodd" d="M94.038 61.3146C92.5952 62.8039 90.1866 63.2313 88.267 62.4326C83.338 60.3752 85.7506 53.9583 89.5519 52.2351C90.0267 52.1168 90.661 51.8363 91.2394 51.7727C91.2916 51.747 91.4055 51.8212 91.5435 51.7511C95.735 52.2186 96.6895 58.7188 94.038 61.3146M78.14 61.6955C76.5217 63.8397 73.5132 64.5012 71.0552 63.5045C66.1992 61.594 67.9216 55.9038 71.2439 53.673C78.2621 51.0385 81.1602 57.742 78.14 61.6955M67.6128 56.9448C67.6083 56.9427 67.6038 56.9416 67.5991 56.9394C67.6248 56.9282 67.6505 56.9169 67.676 56.9054C67.6677 56.9271 67.6587 56.9486 67.6506 56.9703C67.638 56.9617 67.627 56.9516 67.6128 56.9448M97.3784 54.6269C96.9822 54.6277 96.4098 54.6928 96.0818 54.9674C95.273 52.2424 92.2876 49.7204 89.6912 51.5594C87.6466 52.2162 86.1294 53.6731 85.2671 55.6099C83.7123 54.686 81.2676 55.0805 79.9194 56.3023C79.0364 53.3876 76.8633 52.3669 74.2768 52.2162C71.4537 51.7543 68.6399 54.4933 67.7619 56.6906C67.0319 56.6076 65.9411 56.3755 65.2543 56.8256C60.797 55.6579 53.0042 55.014 52.0981 55.6628C51.4523 55.9104 51.0979 57.4331 51.9999 57.5153C52.7859 57.4038 51.9082 56.3995 52.7005 56.2899C56.922 56.0285 61.0201 56.8778 65.1969 57.2342C65.5698 57.7354 66.7747 57.903 67.4175 57.7017C66.4051 61.429 68.5905 63.9649 71.8651 64.7245C76.9356 65.8881 81.347 61.3567 80.0211 56.6435C81.5571 55.8801 83.3239 55.9129 84.9971 56.315C82.2011 66.5951 98.7739 66.1338 96.1855 55.3196C97.908 56.1756 98.2821 54.7996 97.3784 54.6269" fill="black"/>
</svg>
